<svg id="Layer_1" data-name="Layer 1" xmlns="http://www.w3.org/2000/svg" viewBox="0 0 300 79.8"><defs><style>.cls-1{fill:#3d96d2;}.cls-2{fill:#f58432;}.cls-3{fill:#606161;}</style></defs><path class="cls-1" d="M157.05,53.73v-25A10.92,10.92,0,0,1,168,17.84h0v4.4A14.44,14.44,0,0,1,179.24,17q5.64,0,8.24,3.23a13.24,13.24,0,0,1,2.6,8.56v25H179V31a5.62,5.62,0,0,0-1-3.66,4.15,4.15,0,0,0-3.33-1.17c-2.34,0-4.49,1.3-6.45,3.88V53.73Z" transform="translate(0 -0.1)"/><path class="cls-1" d="M198.43,53.73V12.13A11.13,11.13,0,0,1,209.56,1h0V31.68l10.76-13.84h12.09L219.59,34l13,19.78H219.74L209.56,37.4V53.73Z" transform="translate(0 -0.1)"/><path class="cls-1" d="M253.06,54.61q-9.09,0-14.21-5.09t-5.12-13.88q0-8.49,5.23-13.59A17.92,17.92,0,0,1,252,17q8.64,0,12.74,5.68t3.15,16.15H245.74q.87,7.68,8.42,7.69a21.26,21.26,0,0,0,9.15-2.27l3.44,6.95A27.49,27.49,0,0,1,253.06,54.61Zm-7.62-23.15h11.79q-.15-6.66-5.42-6.66T245.44,31.46Z" transform="translate(0 -0.1)"/><path class="cls-1" d="M274.74,53.73V29a11.13,11.13,0,0,1,11.13-11.13h0v4.69Q289.15,17,294.8,17a10.44,10.44,0,0,1,5.2,1.1l-2.64,9.52a8.21,8.21,0,0,0-3.95-.88q-4.62,0-7.54,4.84V53.73Z" transform="translate(0 -0.1)"/><path class="cls-1" d="M112.49,6.87V17.36h7.68V27.71h-7.68V36.8c0,4.43.74,6.5,4.43,6.5a11.11,11.11,0,0,0,3.33-.29V53.5a26.9,26.9,0,0,1-8.35,1.11A13.52,13.52,0,0,1,102.29,51C100.07,48.7,99,44.92,99,39.53V27.71H94.38V17.36H99a9,9,0,0,1,6.72-8.71Z" transform="translate(0 -0.1)"/><path class="cls-1" d="M130.08,17.36c-5.43,0-6.4,6.78-6.4,10.35h6.4v26h14v-26h6.74V17.36Z" transform="translate(0 -0.1)"/><path class="cls-1" d="M137,13.86h.08c4.5,0,7.16-2.88,7.16-6.43S141.6,1,137.1,1s-7.17,2.81-7.17,6.43,2.66,6.43,7.09,6.43" transform="translate(0 -0.1)"/><rect class="cls-1" x="35.17" y="7.32" width="21.7" height="21.7" rx="0.55"/><rect class="cls-1" x="60.86" width="10.85" height="10.85" rx="0.55"/><rect class="cls-1" x="19.92" y="26.72" width="10.85" height="10.85" rx="0.55"/><path class="cls-2" d="M72.66,15.83H61.93v4.22h6.5a1.5,1.5,0,0,1,1.49,1.5V51a1.49,1.49,0,0,1-1.49,1.49H10.28A1.49,1.49,0,0,1,8.79,51V21.55a1.5,1.5,0,0,1,1.49-1.5H30.94V15.83H6.06a1.49,1.49,0,0,0-1.49,1.49V55.26a1.49,1.49,0,0,0,1.49,1.49h66.6a1.49,1.49,0,0,0,1.49-1.49V17.32A1.49,1.49,0,0,0,72.66,15.83Z" transform="translate(0 -0.1)"/><path class="cls-2" d="M7.08,60.32H71.53a.94.94,0,0,1,.88.62l6.25,17.71a.94.94,0,0,1-.88,1.25H.94a.93.93,0,0,1-.89-1.24L6.2,61A.92.92,0,0,1,7.08,60.32Z" transform="translate(0 -0.1)"/><path class="cls-3" d="M101.59,73.94,99,65.06h1.7l1.79,6.5h0l2-6.5H106l2,6.52h0l1.81-6.52h1.57l-2.64,8.88h-1.4l-2.13-6.72h0L103,73.94Z" transform="translate(0 -0.1)"/><path class="cls-3" d="M114.5,73.94V60.65h1.57V66.3a3.48,3.48,0,0,1,2.86-1.46,2.46,2.46,0,0,1,2,.77,3.07,3.07,0,0,1,.63,2v6.31H120v-6c0-1.16-.49-1.73-1.49-1.73a2.15,2.15,0,0,0-1.15.36,3.88,3.88,0,0,0-.83.63,6.18,6.18,0,0,0-.44.54v6.2Z" transform="translate(0 -0.1)"/><path class="cls-3" d="M127.66,74.16a2.6,2.6,0,0,1-1.85-.67,2.28,2.28,0,0,1-.71-1.75,2.41,2.41,0,0,1,.75-1.82,3.94,3.94,0,0,1,1.76-1,9.1,9.1,0,0,1,2.23-.26h.37V67.9a1.85,1.85,0,0,0-.41-1.32,1.8,1.8,0,0,0-1.31-.41,3.52,3.52,0,0,0-2.31.94l-.77-1a4.54,4.54,0,0,1,3.21-1.22q3.13,0,3.14,3v4a9.15,9.15,0,0,0,.22,2.14h-1.55a6.09,6.09,0,0,1-.15-1,3.21,3.21,0,0,1-1.13.92A3.33,3.33,0,0,1,127.66,74.16Zm.31-1.29a2.75,2.75,0,0,0,2.24-1.18V69.77h-.37q-3.12,0-3.12,1.92a1,1,0,0,0,.39.88A1.36,1.36,0,0,0,128,72.87Z" transform="translate(0 -0.1)"/><path class="cls-3" d="M138.68,74.16c-1.55,0-2.33-.81-2.33-2.44V66.28h-1.46V65.06h1.46V62.52h1.55v2.54h2.22v1.22H137.9v5.24a1.73,1.73,0,0,0,.23,1,.92.92,0,0,0,.79.31,2.1,2.1,0,0,0,1.2-.37l.49,1.16A3.39,3.39,0,0,1,138.68,74.16Z" transform="translate(0 -0.1)"/><path class="cls-3" d="M152.83,74.16a3.92,3.92,0,0,1-3.18-1.32,5,5,0,0,1-1.12-3.4,4.8,4.8,0,0,1,1.16-3.3,3.71,3.71,0,0,1,2.92-1.3,3.27,3.27,0,0,1,2.62,1.09,4.39,4.39,0,0,1,.94,3c0,.14,0,.36,0,.68h-5.93A4.21,4.21,0,0,0,150.9,72a2.31,2.31,0,0,0,2,.92,4.9,4.9,0,0,0,2.42-.76l.61,1.15A5.54,5.54,0,0,1,152.83,74.16Zm-2.56-5.78h4.33a2.78,2.78,0,0,0-.52-1.63,1.8,1.8,0,0,0-1.51-.64,2.09,2.09,0,0,0-1.56.61A3.08,3.08,0,0,0,150.27,68.38Z" transform="translate(0 -0.1)"/><path class="cls-3" d="M162,73.94l-3.35-8.88h1.69l2.4,6.85h0l2.36-6.85h1.61l-3.27,8.88Z" transform="translate(0 -0.1)"/><path class="cls-3" d="M173.32,74.16a4,4,0,0,1-3.19-1.32,5.1,5.1,0,0,1-1.11-3.4,4.79,4.79,0,0,1,1.15-3.3,3.72,3.72,0,0,1,2.92-1.3,3.26,3.26,0,0,1,2.62,1.09,4.39,4.39,0,0,1,.95,3c0,.14,0,.36,0,.68H170.7a4.06,4.06,0,0,0,.69,2.37,2.29,2.29,0,0,0,2,.92,4.93,4.93,0,0,0,2.42-.76l.61,1.15A5.59,5.59,0,0,1,173.32,74.16Zm-2.57-5.78h4.34a2.78,2.78,0,0,0-.53-1.63,1.78,1.78,0,0,0-1.5-.64,2.09,2.09,0,0,0-1.56.61A3,3,0,0,0,170.75,68.38Z" transform="translate(0 -0.1)"/><path class="cls-3" d="M180.31,73.94V65.06h1.55v1.35a2.75,2.75,0,0,1,2.34-1.57,2.55,2.55,0,0,1,1,.18l-.39,1.46a1.8,1.8,0,0,0-.81-.15c-.85,0-1.56.58-2.14,1.72v5.89Z" transform="translate(0 -0.1)"/><path class="cls-3" d="M188.15,78.22a5,5,0,0,1-1-.09l.22-1.29a6.39,6.39,0,0,0,.72,0,1.89,1.89,0,0,0,1.37-.46,3.67,3.67,0,0,0,.83-1.46l.41-1.11-3.34-8.8h1.73l2.42,6.83h0l2.33-6.83h1.64l-3.74,10a6.91,6.91,0,0,1-1.36,2.34A3.12,3.12,0,0,1,188.15,78.22Z" transform="translate(0 -0.1)"/><path class="cls-3" d="M202,74.16a3.92,3.92,0,0,1-2.4-.74,4,4,0,0,1-1.37-1.75,5.8,5.8,0,0,1-.4-2.16,5.87,5.87,0,0,1,.23-1.62,5.69,5.69,0,0,1,.7-1.5A3.25,3.25,0,0,1,200,65.26a4.18,4.18,0,0,1,1.92-.42,4.3,4.3,0,0,1,1.92.42,3.3,3.3,0,0,1,1.35,1.1,5.35,5.35,0,0,1,.75,1.49,5.28,5.28,0,0,1,.26,1.62A5.6,5.6,0,0,1,206,71.1a5.73,5.73,0,0,1-.73,1.49,3.47,3.47,0,0,1-1.33,1.14A4.33,4.33,0,0,1,202,74.16Zm0-1.29a2.17,2.17,0,0,0,1.9-.94,4.21,4.21,0,0,0,.65-2.42,4,4,0,0,0-.7-2.42,2.25,2.25,0,0,0-1.94-1,2.07,2.07,0,0,0-1.86.92,4.31,4.31,0,0,0-.6,2.42,4.37,4.37,0,0,0,.64,2.45A2.15,2.15,0,0,0,202,72.87Z" transform="translate(0 -0.1)"/><path class="cls-3" d="M209.78,73.94V65.06h1.55V66.3a3.6,3.6,0,0,1,2.88-1.46,2.42,2.42,0,0,1,2,.77,3,3,0,0,1,.64,2v6.31h-1.57v-6c0-1.16-.5-1.73-1.49-1.73a3.13,3.13,0,0,0-2.44,1.53v6.2Z" transform="translate(0 -0.1)"/><path class="cls-3" d="M224.58,74.16a3.92,3.92,0,0,1-3.18-1.32,5,5,0,0,1-1.12-3.4,4.79,4.79,0,0,1,1.15-3.3,3.74,3.74,0,0,1,2.93-1.3A3.27,3.27,0,0,1,227,65.93a4.39,4.39,0,0,1,.94,3c0,.14,0,.36,0,.68H222a4.06,4.06,0,0,0,.69,2.37,2.31,2.31,0,0,0,2,.92,4.9,4.9,0,0,0,2.42-.76l.61,1.15A5.57,5.57,0,0,1,224.58,74.16ZM222,68.38h4.33a2.78,2.78,0,0,0-.52-1.63,1.8,1.8,0,0,0-1.51-.64,2.09,2.09,0,0,0-1.56.61A3.08,3.08,0,0,0,222,68.38Z" transform="translate(0 -0.1)"/><path class="cls-3" d="M237,73.94V65.06h1.55V66.3a3.6,3.6,0,0,1,2.88-1.46,2.42,2.42,0,0,1,2,.77,3,3,0,0,1,.64,2v6.31h-1.57v-6c0-1.16-.5-1.73-1.49-1.73a3.13,3.13,0,0,0-2.44,1.53v6.2Z" transform="translate(0 -0.1)"/><path class="cls-3" d="M251.8,74.16a3.92,3.92,0,0,1-3.18-1.32,5,5,0,0,1-1.12-3.4,4.79,4.79,0,0,1,1.15-3.3,3.74,3.74,0,0,1,2.93-1.3,3.27,3.27,0,0,1,2.62,1.09,4.39,4.39,0,0,1,.94,3c0,.14,0,.36,0,.68h-5.92a4.13,4.13,0,0,0,.69,2.37,2.31,2.31,0,0,0,2,.92,4.9,4.9,0,0,0,2.42-.76l.61,1.15A5.57,5.57,0,0,1,251.8,74.16Zm-2.56-5.78h4.33a2.78,2.78,0,0,0-.52-1.63,1.8,1.8,0,0,0-1.51-.64,2.09,2.09,0,0,0-1.56.61A3.08,3.08,0,0,0,249.24,68.38Z" transform="translate(0 -0.1)"/><path class="cls-3" d="M262.34,74.16a4,4,0,0,1-3.19-1.32,5.1,5.1,0,0,1-1.11-3.4,4.79,4.79,0,0,1,1.15-3.3,3.73,3.73,0,0,1,2.93-1.3,3.27,3.27,0,0,1,2.62,1.09,4.44,4.44,0,0,1,.94,3c0,.14,0,.36,0,.68h-5.92a4.06,4.06,0,0,0,.69,2.37,2.3,2.3,0,0,0,2,.92,4.93,4.93,0,0,0,2.42-.76l.61,1.15A5.57,5.57,0,0,1,262.34,74.16Zm-2.57-5.78h4.34a2.78,2.78,0,0,0-.53-1.63,1.77,1.77,0,0,0-1.5-.64,2.09,2.09,0,0,0-1.56.61A3,3,0,0,0,259.77,68.38Z" transform="translate(0 -0.1)"/><path class="cls-3" d="M272.25,74.16a3.25,3.25,0,0,1-2.67-1.24,5.25,5.25,0,0,1-1-3.41,5,5,0,0,1,1.12-3.38,3.57,3.57,0,0,1,2.82-1.29,3.3,3.3,0,0,1,2.23.74V60.65h1.55V72a8.67,8.67,0,0,0,.24,2H275a4.82,4.82,0,0,1-.17-1A3.1,3.1,0,0,1,272.25,74.16Zm.37-1.37a2.57,2.57,0,0,0,2.12-1.16V66.91a2.91,2.91,0,0,0-2-.76,2.1,2.1,0,0,0-1.83.91,4.14,4.14,0,0,0-.65,2.43Q270.25,72.79,272.62,72.79Z" transform="translate(0 -0.1)"/><path class="cls-3" d="M282.62,74.18a4.87,4.87,0,0,1-2.88-.85l.65-1.16a3.64,3.64,0,0,0,2.19.72,2.21,2.21,0,0,0,1.27-.32,1,1,0,0,0,.47-.86,1.07,1.07,0,0,0-.11-.49,1.29,1.29,0,0,0-.44-.43,5.44,5.44,0,0,0-.59-.34l-.87-.41a5.87,5.87,0,0,1-1.78-1.1,2.2,2.2,0,0,1-.59-1.61,2.3,2.3,0,0,1,.8-1.79,3.06,3.06,0,0,1,2.12-.7,4.32,4.32,0,0,1,2.67.81l-.7,1.13a3.14,3.14,0,0,0-1.95-.65,1.64,1.64,0,0,0-1.07.3,1,1,0,0,0-.37.83,1,1,0,0,0,.4.84,6.16,6.16,0,0,0,1.33.67c.43.19.78.35,1,.49a5.82,5.82,0,0,1,.83.54,2,2,0,0,1,.62.74,2.18,2.18,0,0,1,.21,1,2.41,2.41,0,0,1-.88,2A3.62,3.62,0,0,1,282.62,74.18Z" transform="translate(0 -0.1)"/></svg>