<svg id="Layer_1" data-name="Layer 1" xmlns="http://www.w3.org/2000/svg" viewBox="0 0 42.59 30"><defs><style>.cls-1{fill:#fff;}</style></defs><path class="cls-1" d="M22.14,30c-3.78-.1-7.13-.17-10.48-.29a46.66,46.66,0,0,1-5.91-.51A5.44,5.44,0,0,1,.9,24.42a41.91,41.91,0,0,1-.59-5.58c-.11-2.23-.15-4.45,0-6.68a42.42,42.42,0,0,1,.72-7A5.35,5.35,0,0,1,5.81.68C7.71.45,9.62.27,11.53.21,15.57.08,19.61,0,23.64,0c3.3,0,6.6.16,9.9.31A32,32,0,0,1,38,.83a5.14,5.14,0,0,1,4.23,4.23,21.6,21.6,0,0,1,.54,4.88c0,3.59,0,7.17,0,10.76a17.29,17.29,0,0,1-.66,4.68,5.13,5.13,0,0,1-4.36,3.79,34.55,34.55,0,0,1-4,.43c-4,.17-8,.28-11.57.4m-4.79-8.62L28.52,15,17.35,8.53Z" transform="translate(-0.2)"/></svg>
