<?xml version="1.0" encoding="utf-8"?>
<!-- Generator: Adobe Illustrator 25.2.1, SVG Export Plug-In . SVG Version: 6.00 Build 0)  -->
<svg version="1.1" id="Layer_1" xmlns="http://www.w3.org/2000/svg" xmlns:xlink="http://www.w3.org/1999/xlink" x="0px" y="0px"
	 viewBox="0 0 46 44.6" style="enable-background:new 0 0 46 44.6;" xml:space="preserve">
<style type="text/css">
	.st0{fill:#FFFFFF;}
</style>
<g>
	<path class="st0" d="M35.8,22h-0.2c0,0-0.1,0-0.1,0c-1.1,0.1-1.9,1.1-1.8,2.2c0,0.6,0.1,1.2,0.5,1.7c0.1,0.1,0.2,0.2,0.3,0.3
		c0.8,0.6,2,0.5,2.7-0.3c0.6-0.9,0.6-2.2,0-3.1C36.9,22.3,36.4,22,35.8,22z"/>
	<path class="st0" d="M23,0C10.3,0,0,10,0,22.3c0,1.3,0.1,2.6,0.4,3.8c0.4,4.6,2.4,8.9,5.8,12c0.8,0.6,0.9,1.7,0.3,2.5l-0.1,0.1
		c-0.8,1.2-1.9,2.3-3.2,3C3.2,43.8,3,43.9,2.9,44c-0.2,0.2-0.1,0.2,0.1,0.3c0,0,0,0.1,0.1,0.1c2.4,0.4,4.9,0.1,7.3-0.7
		c0.8-0.2,1.6-0.5,2.4-0.7c0.6-0.2,1.1-0.2,1.7,0c0.5,0.2,1.1,0.3,1.6,0.5l0.2,0.1l1.1,0.3c1.9,0.5,3.8,0.7,5.7,0.7
		c3.9,0,7.8-1,11.3-2.9c1.8-0.9,3.5-2.1,5-3.6C43.6,34,46,28.3,46,22.3C46,10,35.7,0,23,0z M14.4,29H7.1c-0.5,0.1-1-0.1-1.4-0.5
		c-0.6-0.6-0.5-1.6,0.1-2.2l5.4-6.6l0.3-0.4c-0.1-0.1-0.3-0.1-0.4-0.1H7.3c-0.3,0-0.6,0-0.8-0.1c-0.7-0.1-1.1-0.8-0.9-1.5
		c0.1-0.4,0.5-0.8,0.9-0.9c0.3-0.1,0.6-0.1,0.9-0.1h6.3c0.4,0,0.7,0,1.1,0.1h0.1c0,0,0,0,0,0c0.6,0.2,1,1,0.7,1.6
		c-0.3,0.6-0.7,1.2-1.2,1.7l-4.6,5.7c-0.2,0.2-0.3,0.4-0.4,0.5h5c0.9,0,1.4,0.2,1.5,1.1c0,0.1,0,0.3,0,0.4
		C15.8,28.6,15.1,29.1,14.4,29z M25.7,27.7c0,0.6-0.4,1.1-1,1.3c-0.6,0.2-1.3,0.1-1.7-0.5c-0.2-0.2-0.3-0.2-0.6,0
		c-1,0.8-2.3,1-3.5,0.6c-1.8-0.6-3.1-2.3-3.2-4.2c-0.4-2,0.6-4,2.4-5c1.4-1,3.4-0.8,4.6,0.4c0.2-0.4,0.6-0.7,1-0.8
		c0.1,0,0.2-0.1,0.3-0.1c0,0,0,0,0.1,0c0.8,0,1.4,0.5,1.5,1.3V27.7z M29.8,16.9c0,1.8,0,3.6,0,5.4v5.4c0,0.1,0,0.2,0,0.2
		c-0.1,0.8-0.8,1.4-1.6,1.3c-0.8-0.1-1.4-0.8-1.3-1.6V16.9c0-0.1,0-0.2,0-0.3c0.1-0.8,0.8-1.4,1.6-1.3
		C29.3,15.4,29.8,16.1,29.8,16.9z M36.3,29.3c-0.3,0-0.6,0.1-0.8,0.1c-2.6,0-4.7-2.2-4.6-4.8c-0.1-0.5-0.1-1-0.1-1.4
		c0-0.2,0-0.4,0.1-0.5c0.4-2.7,3-4.6,5.7-4.2c2.7,0.4,4.6,3,4.2,5.7l0,0C40.9,26.7,38.9,29,36.3,29.3z"/>
	<path class="st0" d="M20.7,22c-1.3-0.1-2.2,0.8-2.2,2.5c0,0.5,0.2,1,0.5,1.4c0.7,0.8,1.8,1,2.7,0.4c0.1-0.1,0.3-0.2,0.4-0.4h0
		c0.6-1,0.6-2.2,0-3.2C21.8,22.2,21.3,22,20.7,22z"/>
</g>
</svg>
