<svg id="Layer_1" data-name="Layer 1" xmlns="http://www.w3.org/2000/svg" viewBox="0 0 536 176.27"><defs><style>.cls-1{fill:#00a8e8;}.cls-2{fill:#d92128;}.cls-3{fill:#606060;}</style></defs><path class="cls-1" d="M71.55,40A53.24,53.24,0,0,0,29.64,133a53.45,53.45,0,0,0,6.55,4.87l-6.35,9.4q-2.58-1.65-5-3.54A64.54,64.54,0,0,1,80.45,30.23c1,.26,2.06.56,3.08.87l-7.07,9.83C74.85,40.56,73.2,40.25,71.55,40Z" transform="translate(0 0.14)"/><path class="cls-2" d="M42.29,153.43c-.8-.29-1.59-.61-2.38-.93l6.18-9.76c1.38.52,2.79,1,4.23,1.37a52.63,52.63,0,0,0,28.34.07,53.24,53.24,0,0,0,15.71-95.4,50.65,50.65,0,0,0-7.59-4.29l6.77-9.33a62,62,0,0,1,6,3.42A64.54,64.54,0,0,1,42.29,153.43Z" transform="translate(0 0.14)"/><path class="cls-1" d="M24.84,143.7,29.64,133l13.14-29.39L20,97,71.55,40l8.9-9.8,18-19.92-15,20.79-7.07,9.83L40.64,90.7l25.43,2.83L36.19,137.84l-6.35,9.4-19.49,28.9Z" transform="translate(0 0.14)"/><path class="cls-2" d="M39.91,152.5l6.18-9.76L80.54,88.15l-21.6-5.28L86.78,44.49l6.77-9.33,25.6-35.3L99.53,38.58l-5.16,10.2L81,75.12l23.53,6.15L50.32,144.11l-8,9.32-11,12.75Z" transform="translate(0 0.14)"/><path class="cls-2" d="M185.68,34.94v7.78H160.07V61h24.74v7.87H160.07V87.57H186.5v7.78H151.38V34.94Z" transform="translate(0 0.14)"/><path class="cls-2" d="M204.27,34.94V87.57h27.29v7.78h-36V34.94Z" transform="translate(0 0.14)"/><path class="cls-2" d="M273.38,34.94v7.78h-25.6V61h24.73v7.87H247.78V87.57H274.2v7.78H239.08V34.94Z" transform="translate(0 0.14)"/><path class="cls-2" d="M334.83,39.13v9.3a52.6,52.6,0,0,0-7.16-3.59,37.7,37.7,0,0,0-6.81-2.05,34.76,34.76,0,0,0-6.83-.67,26.33,26.33,0,0,0-9.49,1.7,22.68,22.68,0,0,0-7.68,4.83,22.24,22.24,0,0,0-5.08,7.41,23.1,23.1,0,0,0-1.84,9.19,24.05,24.05,0,0,0,1.73,9.11,20.79,20.79,0,0,0,5,7.39,22.28,22.28,0,0,0,7.85,4.78,28.51,28.51,0,0,0,9.82,1.64q10.64,0,21.1-6.83v9.51a44.86,44.86,0,0,1-6.34,2.79,41.64,41.64,0,0,1-7.22,1.84,50.6,50.6,0,0,1-8.32.65q-10.69,0-18-4.65a30.15,30.15,0,0,1-11-11.61A29.8,29.8,0,0,1,281,66a32.27,32.27,0,0,1,2.49-12.71,30.24,30.24,0,0,1,6.89-10.14,31.27,31.27,0,0,1,10.51-6.64,36.06,36.06,0,0,1,13.24-2.38,40.81,40.81,0,0,1,9.51,1.17A74.54,74.54,0,0,1,334.83,39.13Z" transform="translate(0 0.14)"/><path class="cls-2" d="M391.44,34.94v7.78H370.55V95.35h-8.69V42.72H341V34.94Z" transform="translate(0 0.14)"/><path class="cls-2" d="M399.74,34.94H415A25.32,25.32,0,0,1,425.48,37a15.51,15.51,0,0,1,7,5.86,16.45,16.45,0,0,1,2.41,9,15.55,15.55,0,0,1-2.6,9,16.29,16.29,0,0,1-7.52,5.75,25.84,25.84,0,0,1,6.59,6.25q2.84,3.78,6.9,10.53c.58.92,1.27,2,2.08,3.24s1.75,2.61,2.83,4.11,2.18,3,3.31,4.58H436.07l-8-12.41a69.28,69.28,0,0,0-6.59-9,16.31,16.31,0,0,0-4.87-3.92,11.42,11.42,0,0,0-4.58-.92h-3.64v26.2h-8.69Zm8.69,7.44v19H414q6.4,0,9.15-2.77a9.64,9.64,0,0,0,2.75-7.09q-.14-9.12-11.9-9.12Z" transform="translate(0 0.14)"/><path class="cls-2" d="M461.84,34.94V95.35h-8.69V34.94Z" transform="translate(0 0.14)"/><path class="cls-2" d="M526.67,39.13v9.3a52.6,52.6,0,0,0-7.16-3.59,37.7,37.7,0,0,0-6.81-2.05,34.76,34.76,0,0,0-6.83-.67,26.29,26.29,0,0,0-9.49,1.7,22.68,22.68,0,0,0-7.68,4.83,22.24,22.24,0,0,0-5.08,7.41,23.1,23.1,0,0,0-1.84,9.19,24.05,24.05,0,0,0,1.73,9.11,20.79,20.79,0,0,0,5,7.39,22.28,22.28,0,0,0,7.85,4.78,28.49,28.49,0,0,0,9.81,1.64q10.65,0,21.11-6.83v9.51A44.86,44.86,0,0,1,521,93.64a41.64,41.64,0,0,1-7.22,1.84,50.69,50.69,0,0,1-8.32.65q-10.69,0-18-4.65a30.15,30.15,0,0,1-11-11.61A29.8,29.8,0,0,1,472.83,66a32.44,32.44,0,0,1,2.48-12.71,30.41,30.41,0,0,1,6.9-10.14,31.27,31.27,0,0,1,10.51-6.64A36,36,0,0,1,506,34.16a40.83,40.83,0,0,1,9.52,1.17A74.54,74.54,0,0,1,526.67,39.13Z" transform="translate(0 0.14)"/><path class="cls-3" d="M145.88,115.56h2.49L153.29,132h.07l4.69-16.45h2.65L165.39,132h.07l4.91-16.45h2.5l-6.18,19.21h-2.57l-4.73-16.16h-.07l-4.69,16.16h-2.57Z" transform="translate(0 0.14)"/><path class="cls-3" d="M178.15,108.19h2.35v10.68h.07a5.68,5.68,0,0,1,2.38-2.81,7.07,7.07,0,0,1,3.76-1.06q3.87,0,5.46,1.88a8.44,8.44,0,0,1,1.58,5.53v12.36H191.4v-12q0-5.81-4.87-5.8a5.49,5.49,0,0,0-4.34,1.84,7.22,7.22,0,0,0-1.69,4.74v11.21h-2.35Z" transform="translate(0 0.14)"/><path class="cls-3" d="M200.75,121.44a6.27,6.27,0,0,1,2.27-4.85,8.73,8.73,0,0,1,5.5-1.59q7.08,0,7.08,6.18v10.2A1.24,1.24,0,0,0,217,132.8a1.67,1.67,0,0,0,.75-.15v2a7.78,7.78,0,0,1-1.53.15,2.45,2.45,0,0,1-2.19-.84,4.51,4.51,0,0,1-.56-2.51h-.08a9.79,9.79,0,0,1-2.86,3,7.91,7.91,0,0,1-4.13.91,7.35,7.35,0,0,1-4.66-1.4,5,5,0,0,1-1.78-4.18,5.75,5.75,0,0,1,.29-1.88,6.48,6.48,0,0,1,.69-1.42,3.52,3.52,0,0,1,1.23-1,14.32,14.32,0,0,1,1.43-.71,10.26,10.26,0,0,1,1.81-.46c.81-.15,1.42-.26,1.84-.32s1.11-.14,2.05-.24l1-.11a4.89,4.89,0,0,0,2.32-.64,2.28,2.28,0,0,0,.69-2,3.37,3.37,0,0,0-1.34-3.07,6.7,6.7,0,0,0-3.68-.87,5.75,5.75,0,0,0-3.71,1.09,4.3,4.3,0,0,0-1.43,3.37Zm12.5,2.83h-.07c-.2.37-.86.66-2,.86-.42.07-1.09.18-2,.31l-2.12.34a18,18,0,0,0-1.8.45,6,6,0,0,0-1.6.68,3.5,3.5,0,0,0-1,1.07,2.86,2.86,0,0,0-.43,1.58,3.36,3.36,0,0,0,1.27,2.75,4.55,4.55,0,0,0,3,1,7.1,7.1,0,0,0,4.77-1.65,5.48,5.48,0,0,0,1.93-4.38Z" transform="translate(0 0.14)"/><path class="cls-3" d="M226.8,115.56h3.91v2H226.8v13a3.6,3.6,0,0,0,.37,1.86,1.82,1.82,0,0,0,1.53.67,19.34,19.34,0,0,0,2-.11v2c-.22,0-.57,0-1,0l-1,0a4.57,4.57,0,0,1-3.29-.93,4.62,4.62,0,0,1-.87-3.35V117.53h-3.35v-2h3.35v-5.77h2.34Z" transform="translate(0 0.14)"/><path class="cls-3" d="M251.4,125.8a8.92,8.92,0,0,0,1.62,5.25,5.41,5.41,0,0,0,4.71,2.3c3.2,0,5.21-1.63,6-4.91h2.35q-1.58,6.85-8.38,6.85-4.35,0-6.51-2.85a11.7,11.7,0,0,1-2.16-7.28,13.29,13.29,0,0,1,.86-4.89,8.43,8.43,0,0,1,2.88-3.74,8,8,0,0,1,4.93-1.53,7.66,7.66,0,0,1,4.93,1.6,8.58,8.58,0,0,1,2.81,4,14.18,14.18,0,0,1,.71,5.21Zm12.44-2a7.73,7.73,0,0,0-1.75-4.82,5.39,5.39,0,0,0-4.36-2,5.34,5.34,0,0,0-4.35,2,9.11,9.11,0,0,0-2,4.85Z" transform="translate(0 0.14)"/><path class="cls-3" d="M270,115.56h2.6l6,16.86h.08l5.95-16.86h2.42l-7.18,19.21h-2.5Z" transform="translate(0 0.14)"/><path class="cls-3" d="M293.54,125.8a8.92,8.92,0,0,0,1.62,5.25,5.41,5.41,0,0,0,4.71,2.3c3.2,0,5.21-1.63,6-4.91h2.34q-1.56,6.85-8.37,6.85-4.37,0-6.52-2.85a11.7,11.7,0,0,1-2.16-7.28,13.5,13.5,0,0,1,.86-4.89,8.43,8.43,0,0,1,2.88-3.74,8,8,0,0,1,4.94-1.53,7.66,7.66,0,0,1,4.93,1.6,8.72,8.72,0,0,1,2.81,4,14.4,14.4,0,0,1,.71,5.21Zm12.43-2a7.67,7.67,0,0,0-1.75-4.82,5.73,5.73,0,0,0-8.71,0,9.1,9.1,0,0,0-2,4.85Z" transform="translate(0 0.14)"/><path class="cls-3" d="M314.27,115.56h2.16v4.51h.07a7.22,7.22,0,0,1,2.8-3.63,7.36,7.36,0,0,1,4.46-1.14v2.35a6.5,6.5,0,0,0-5.13,1.84,6.8,6.8,0,0,0-2,5v10.24h-2.35Z" transform="translate(0 0.14)"/><path class="cls-3" d="M326.63,115.56h2.49l6.33,16.38,5.92-16.38h2.34l-8.33,22.11a9.76,9.76,0,0,1-2,3.35,4.57,4.57,0,0,1-3.06.82,9.42,9.42,0,0,1-1.78-.19v-2a7.9,7.9,0,0,0,1.6.19,3.63,3.63,0,0,0,1.26-.19,1.93,1.93,0,0,0,.91-.69,4.49,4.49,0,0,0,.58-.87l.6-1.27.82-2.16Z" transform="translate(0 0.14)"/><path class="cls-3" d="M350.26,117.93a9,9,0,0,1,13.33,0,12,12,0,0,1,0,14.48,9.15,9.15,0,0,1-13.33,0,12,12,0,0,1,0-14.48Zm11.62,1.48a6.26,6.26,0,0,0-9.9,0,10.15,10.15,0,0,0,0,11.51,6.26,6.26,0,0,0,9.9,0,10.19,10.19,0,0,0,0-11.51Z" transform="translate(0 0.14)"/><path class="cls-3" d="M372.26,115.56h2.35v3.31h.07a5.68,5.68,0,0,1,2.38-2.81,7.1,7.1,0,0,1,3.76-1.06q3.87,0,5.46,1.88a8.44,8.44,0,0,1,1.58,5.53v12.36h-2.35v-12q0-5.81-4.87-5.8a5.49,5.49,0,0,0-4.34,1.84,7.22,7.22,0,0,0-1.69,4.74v11.21h-2.35Z" transform="translate(0 0.14)"/><path class="cls-3" d="M396.46,125.8a8.92,8.92,0,0,0,1.62,5.25,5.39,5.39,0,0,0,4.7,2.3c3.21,0,5.22-1.63,6-4.91h2.35q-1.56,6.85-8.38,6.85-4.35,0-6.51-2.85a11.7,11.7,0,0,1-2.16-7.28,13.5,13.5,0,0,1,.86-4.89,8.43,8.43,0,0,1,2.88-3.74,8,8,0,0,1,4.93-1.53,7.69,7.69,0,0,1,4.94,1.6,8.72,8.72,0,0,1,2.81,4,14.19,14.19,0,0,1,.7,5.21Zm12.43-2a7.67,7.67,0,0,0-1.75-4.82,5.39,5.39,0,0,0-4.36-2,5.34,5.34,0,0,0-4.35,2,9.1,9.1,0,0,0-2,4.85Z" transform="translate(0 0.14)"/><path class="cls-3" d="M430.29,115.56h2.35v3.31h.07a5.68,5.68,0,0,1,2.38-2.81,7.07,7.07,0,0,1,3.76-1.06q3.87,0,5.45,1.88a8.38,8.38,0,0,1,1.59,5.53v12.36h-2.35v-12q0-5.81-4.87-5.8a5.47,5.47,0,0,0-4.34,1.84,7.22,7.22,0,0,0-1.69,4.74v11.21h-2.35Z" transform="translate(0 0.14)"/><path class="cls-3" d="M454.48,125.8a8.92,8.92,0,0,0,1.62,5.25,5.41,5.41,0,0,0,4.71,2.3c3.2,0,5.21-1.63,6-4.91h2.35q-1.57,6.85-8.38,6.85-4.35,0-6.51-2.85a11.7,11.7,0,0,1-2.16-7.28,13.29,13.29,0,0,1,.86-4.89,8.43,8.43,0,0,1,2.88-3.74,8,8,0,0,1,4.93-1.53,7.64,7.64,0,0,1,4.93,1.6,8.58,8.58,0,0,1,2.81,4,14,14,0,0,1,.71,5.21Zm12.44-2a7.73,7.73,0,0,0-1.75-4.82,5.39,5.39,0,0,0-4.36-2,5.34,5.34,0,0,0-4.35,2,9.19,9.19,0,0,0-2,4.85Z" transform="translate(0 0.14)"/><path class="cls-3" d="M476.59,125.8a8.92,8.92,0,0,0,1.62,5.25,5.41,5.41,0,0,0,4.71,2.3c3.2,0,5.21-1.63,6-4.91h2.35q-1.57,6.85-8.38,6.85-4.35,0-6.51-2.85a11.7,11.7,0,0,1-2.16-7.28,13.29,13.29,0,0,1,.86-4.89,8.43,8.43,0,0,1,2.88-3.74,8,8,0,0,1,4.93-1.53,7.64,7.64,0,0,1,4.93,1.6,8.58,8.58,0,0,1,2.81,4,14,14,0,0,1,.71,5.21Zm12.44-2a7.73,7.73,0,0,0-1.75-4.82,5.39,5.39,0,0,0-4.36-2,5.34,5.34,0,0,0-4.35,2,9.11,9.11,0,0,0-2,4.85Z" transform="translate(0 0.14)"/><path class="cls-3" d="M514.22,134.77h-2.15v-3.65H512a6.08,6.08,0,0,1-2.72,3,8.13,8.13,0,0,1-4.13,1.15,7.64,7.64,0,0,1-6.4-2.87,12.92,12.92,0,0,1,0-14.51,7.58,7.58,0,0,1,6.4-2.91,8,8,0,0,1,4.1,1.1,5.75,5.75,0,0,1,2.57,3.11h.07v-11h2.34Zm-14.75-13.51a12.61,12.61,0,0,0,0,7.81,6.84,6.84,0,0,0,2.08,3,5.37,5.37,0,0,0,3.59,1.24,5.74,5.74,0,0,0,5.08-2.4,10.91,10.91,0,0,0,0-11.57,5.74,5.74,0,0,0-5.08-2.4,5.37,5.37,0,0,0-3.59,1.24A6.84,6.84,0,0,0,499.47,121.26Z" transform="translate(0 0.14)"/><path class="cls-3" d="M533,121.18A3.89,3.89,0,0,0,531.5,118,5.74,5.74,0,0,0,528,117a6.06,6.06,0,0,0-3.18.8,2.69,2.69,0,0,0-1.36,2.51q0,2.23,4,3.24l3.13.7a7.66,7.66,0,0,1,3.89,1.68,4.54,4.54,0,0,1,1.58,3.65,4.71,4.71,0,0,1-2.31,4.31,10.07,10.07,0,0,1-5.4,1.42q-7.29,0-7.89-6.74h2.35a4.73,4.73,0,0,0,1.69,3.56,6.12,6.12,0,0,0,4,1.24,7.25,7.25,0,0,0,3.63-.91,3,3,0,0,0,1.62-2.73,2.55,2.55,0,0,0-1.1-2.27,9.57,9.57,0,0,0-3.11-1.23l-3-.67a10.45,10.45,0,0,1-4-1.79,4.09,4.09,0,0,1-1.36-3.35,4.47,4.47,0,0,1,2.16-4.06,9.44,9.44,0,0,1,5.06-1.34,7.57,7.57,0,0,1,5,1.59,6,6,0,0,1,2.08,4.59Z" transform="translate(0 0.14)"/></svg>